<svg id="dracula" data-name="dracula" xmlns="http://www.w3.org/2000/svg" viewBox="0 0 361.3 398"><title>dracula</title><path d="M155.28,187.52a3.76,3.76,0,0,0-2.47-5.54c-6.89-1.49-19.66-4.32-26.21-6.13-9.24-2.55-25.74-11.06-25.74-11.06s-5.62,26.32,20.56,35.89C140.66,207.72,151.1,194.83,155.28,187.52Z"/><path d="M229.81,175.85c-6.55,1.81-19.33,4.64-26.21,6.13a3.76,3.76,0,0,0-2.47,5.54c4.18,7.31,14.62,20.2,33.87,13.16,26.18-9.57,20.56-35.89,20.56-35.89S239.06,173.3,229.81,175.85Z"/><path d="M355.62,115.75c-3.91,2.46-9.36,6-16.76,11.09C325,136.33,319,152.13,316.77,160.3a168.73,168.73,0,0,0-1.3-27.14C305.21,54,264.84,0,181.22,0H180C96.28,0,56.11,54,45.84,133.17a170.32,170.32,0,0,0-1.31,26.94c-2.34-8.27-8.32-23.83-22-33.2-7.4-5.07-12.85-8.67-16.76-11.13-3.18-2-6.62,1.73-5.44,5.91,3.21,11.4,8,29,10,40.08,3.22,17.37,18.8,57.34,32.85,57.81L55,220c14.09,46,39,85.72,53.38,108.86,21.68,34.8,67,31.51,72.31,31,5.32.52,50.62,3.81,72.3-31,14.42-23.14,39.28-62.89,53.36-108.86l11.86-.4c14-.47,29.63-40.44,32.85-57.81,2-11,6.82-28.68,10-40.09C362.24,117.49,358.81,113.74,355.62,115.75ZM228.28,331.59c-17.45,11.45-43.7,11.56-47.58,11.51s-30.13-.06-47.58-11.51C114.25,319.2,65.57,229.53,65.57,173.48S101,86.76,101,86.76s15.63,21.83,35.1,38.05a132,132,0,0,0,28.06,17.34,39.07,39.07,0,0,0,33.14,0,132,132,0,0,0,28.06-17.34c19.47-16.22,35.1-38.05,35.1-38.05s35.4,30.68,35.4,86.72S247.16,319.2,228.28,331.59Z"/><path d="M138.75,263.31s0,20.63,7.28,26.7,9.71,6.07,9.71,6.07-2.43-9.71-2.43-14.56,1.21-4.85,1.21-4.85,17,2.43,25.48,2.43,25.48-2.43,25.48-2.43,1.21,0,1.21,4.85-2.43,14.56-2.43,14.56,2.43,0,9.71-6.07,7.28-26.7,7.28-26.7c-17,6.07-41.26,6.07-41.26,6.07S155.74,269.38,138.75,263.31Z"/><polygon points="0 355.64 128.64 373.9 72.63 305.78 0 355.64"/><polygon points="228.53 373.9 357.17 355.64 284.54 305.78 228.53 373.9"/><polygon points="128.64 373.9 148.46 398 178.58 381.13 208.71 398 228.53 373.9 178.58 380.98 128.64 373.9"/></svg>
