<svg id="frankenstein" data-name="frankenstein" xmlns="http://www.w3.org/2000/svg" viewBox="0 0 408 379.13"><title>frankenstein</title><path d="M404.26,101H374a4,4,0,0,0-4,3.69V135H350.74c-.35-13.83-1.21-27.28-2.74-40-9-75-16-95-21-95s-28,22-31,22S280,0,274,0s-16.63,22.22-20.79,23L184.86,60.63l10.06,15.19-9.82,6.88L176.37,65.3,155.52,76.79,167.2,93.9l-9.82,6.88L147.12,81.42,125.66,93.24,140.23,114l-9.82,6.88L117.54,97.71l-21.9,12.06L111.92,133l-9.82,6.88-14.3-25.8L57.39,130.86c0,1.38-.09,2.76-.12,4.14H38V104.69A4,4,0,0,0,34,101H3.74A3.8,3.8,0,0,0,0,104.69v83.08c0,2,1.75,3.23,3.74,3.23H34c2,0,4-1.24,4-3.23V161H57.16c1,60,9.75,124.78,14.84,166.25,7,57,132,51.75,132,51.75s125,5.25,132-51.75C341.09,285.78,349.89,221,350.84,161H370v26.77c0,2,2,3.23,4,3.23h30.3c2,0,3.74-1.24,3.74-3.23V104.69A3.8,3.8,0,0,0,404.26,101ZM140,301.16c57.5-50,129.5-6,129.5-6ZM288.2,188.79c-19.93,6.81-41-3.32-44.84-5.34.85,1.53,2.34,8.14,3.27,34.73C248,256.9,204,254.64,204,254.64s-44,2.25-42.62-36.47c.93-26.59,2.42-33.2,3.27-34.73-3.87,2-24.91,12.15-44.84,5.34-18.19-6.21-13.12-29.18-10.78-37.05a3.94,3.94,0,0,1,3.58-2.81l64.83-3.35s-13.06,72.72,0,81.66A37.73,37.73,0,0,0,204,233.48a37.73,37.73,0,0,0,26.56-6.25c13.06-8.95,0-81.66,0-81.66l64.83,3.35a3.94,3.94,0,0,1,3.58,2.81C301.32,159.61,306.38,182.58,288.2,188.79Z"/><path d="M81.2,102.21,72.59,86.67l4.09-4,11.24,16L111.4,86.63,100.91,67.7l4.09-4L118.47,83,141.63,71,130.7,50.39l4.09-4L149,67.23l22.52-11.62L161.26,35.13l4.09-4L179,51.76l68-35.1C242.33,9.85,236.24,0,231,0c-8,0-27,26-27,26S185,0,177,0s-18,23-22,23S140,0,134,0s-19,22-22,22S86,0,81,0,69,20,60,95c-.74,6.19-1.33,12.56-1.77,19.06Z"/></svg>
