<svg id="mummy" data-name="mummy" xmlns="http://www.w3.org/2000/svg" viewBox="0 0 378 378.92"><title>mummy</title><path d="M257.86,34.33,97.8,84.42l0,.19-.42-.05L11.43,111.45a239.39,239.39,0,0,0-9.56,45.16l284.6-89.07A149.74,149.74,0,0,0,257.86,34.33Z"/><path d="M26.74,75.89a186.09,186.09,0,0,0-11.25,24L73.82,81.67Z"/><path d="M318.2,192.28c0-.94,0-1.88,0-2.82a283.61,283.61,0,0,0-2.1-34.81L92.45,138.23.87,166.89Q0,178,0,189.46c0,7.75.22,15.39.67,18.9L193.44,232Zm-88.28-23.05a16.55,16.55,0,1,1-16.55,16.55A16.55,16.55,0,0,1,229.93,169.23Zm-93.72,17.5c-5,10.36-18,24.75-50.78,22.56-37.34-2.49-38-28.38-35.8-41.74a7.89,7.89,0,0,1,9.29-6.45l71.33,13.85A8.34,8.34,0,0,1,136.21,186.73Z"/><path d="M1.39,222a265.57,265.57,0,0,0,8.47,48l284.92,35a191,191,0,0,0,16.14-45Z"/><path d="M12.91,280c5.62,16.78,13.25,32,23.17,45.23L111,292Z"/><path d="M318,201.81,224,236l88.89,10.7C315.85,235.21,317.49,218.82,318,201.81Z"/><path d="M145.46,296.3l0,.06L42,332.64A125.19,125.19,0,0,0,87.76,365.8L237,307Z"/><path d="M100.89,370.67c16.86,5.36,36.17,8.25,58.22,8.25,65.07,0,106.44-25.13,130.63-64.9l-20.23-2.48Z"/><path d="M314.16,141.6c-4.25-24.08-11.82-46.31-22.66-65.66L125.87,127.77Z"/><path d="M159.11,0a164.92,164.92,0,0,0-51.26,7.74L245.08,24.6C221.84,8.95,193.14,0,159.11,0Z"/><path d="M220,36,87.62,16.09c-22.69,11.52-41,28.73-55,50.07L107,71Z"/><circle cx="92.01" cy="186.33" r="11.04"/><path d="M369.29,251.08l8.71-3.72s-24.08-19.84-48.66-21.1c0,0-3.43,29.93-10.59,51.15s-8.68,24.69-8.68,24.69c33.69,4.64,46.32,18.12,46.32,18.12L356,305h9l-4.06-16.16L372,286l-6.88-16L377,267Z"/></svg>
