<svg id="pumpkin" xmlns="http://www.w3.org/2000/svg" viewBox="0 0 400 400"><path d="M325.12022,90.58838c-34.90955-17.70062-65.26007-14.26263-90.41241-9.9093-17.274-5.56989-15.8172-31.335-15.8172-31.335H186.564s1.88794,27.91876-17.03748,31.46c-25.29205-4.41058-55.88641-8.08508-91.12878,9.7843-52.763,26.75305-66.13953,106.269-46.07477,166.46332s75.05719,83.97491,92.89258,90.66321,34.18439,5.94513,43.84521,2.97247c8.60059-2.64636,12.81927-1.48615,18.57855.74323s9.49286,3.28784,14.11963,3.06549c4.62677.22235,9.28918,0,14.11963-3.06549s9.978-3.38959,18.57861-.74323c9.66077,2.97266,26.00983,3.71576,43.84515-2.97247s72.82782-30.46881,92.89258-90.66321S377.88322,117.34143,325.12022,90.58838ZM275.81455,137.4425l27.42572,53.65906H246.004Zm-73.43091,49.49738,14.36841,28.112H186.76591ZM130.662,137.4425l27.42572,53.65906H100.85148ZM307.305,278.95978l-10.16644-14.12415a3.34512,3.34512,0,0,0-4.66919-.76062l-16.283,11.72052a3.345,3.345,0,0,0-.7608,4.66919l12.42633,17.26361c-16.42047,12.00867-39.37451,21.18848-71.45221,22.794l-.23218-21.62463a3.34509,3.34509,0,0,0-3.38086-3.30914l-20.06152.21539a3.34507,3.34507,0,0,0-3.309,3.38086l.22437,20.90491c-29.223-2.44727-51.17517-11.28754-67.60419-22.60376l10.45135-18.84027a3.34538,3.34538,0,0,0-1.30261-4.5481l-17.54395-9.73224a3.34534,3.34534,0,0,0-4.5481,1.30249l-7.59491,13.691C79.35819,254.51355,74.723,227.69775,74.723,227.69775s21.92352,16.12561,74.11041,23.59155l-4.54022,19.12628a3.34531,3.34531,0,0,0,2.48224,4.02747l19.52008,4.63361a3.34537,3.34537,0,0,0,4.02753-2.48212l5.34863-22.53235c8.91766.59558,18.4527.946,28.708.946,6.77179,0,13.18-.16125,19.313-.43188l3.23621,25.39636a3.345,3.345,0,0,0,3.74121,2.89551l19.90173-2.53583a3.34536,3.34536,0,0,0,2.89551-3.74133l-3.07361-24.12128c57.43793-6.77411,78.40118-24.772,78.40118-24.772S326.7628,254.22742,307.305,278.95978Z"/></svg>