<svg id="Witch" xmlns="http://www.w3.org/2000/svg" viewBox="0 0 400 400"><path d="M382.09351,208.37355l-86.55061-34.11724L275.42783,86.89947,300.378,97.06434a5.49484,5.49484,0,0,0,6.21229-8.70514c-15.12488-17.27873-36.91176-42.38833-43.80625-51.46-10.91961-14.3679-36.78183-16.092-45.40257-4.023S120.82921,154.716,120.82921,154.716L14.48808,165.62455a2.8995,2.8995,0,0,0,.01866,5.75818l100.5885,11.68536a168.7707,168.7707,0,0,0-21.27768,42.338s-30.46,18.96563-33.33353,20.68978-3.4483,28.7358-3.4483,37.35654,10.91961-1.14943,13.79319-3.4483,5.74716-5.17244,5.74716-5.17244,4.59773,2.87358,11.49432-.57472c0,0-.43974,6.15757-.98274,13.615a84.58292,84.58292,0,0,0,24.78884,3.17L116.8062,302.418l5.62032-12.1775c10.2043-1.4309,19.00814-4.71952,23.6902-9.66171-8.47426,32.95511-48.95049,37.37086-63.315,37.89064-4.02413,7.179-10.81269,17.56757-1.62789,27.627,8.87218,9.71714,60.91289,6.70072,87.86042,4.42094a35.696,35.696,0,0,0,4.09415,3.62509c24.13807,18.39091,39.65541-4.023,39.65541-4.023s-1.14943,29.31052,26.43694,31.03467,31.60938-20.68978,31.60938-20.68978,18.39091,21.83921,41.95427,8.046S323.704,323.10777,323.704,323.10777s21.83921-7.47131,17.24148-36.20711-33.90825-24.13807-33.90825-24.13807l-10.83444-58.65535,84.39809,9.80448A2.89952,2.89952,0,0,0,382.09351,208.37355ZM129.45,238.62451c-12.069.57472-9.19546-13.79319-9.19546-13.79319l20.11506-1.14943S141.519,238.04979,129.45,238.62451Z"/></svg>