<svg id="レイヤー_1" data-name="レイヤー 1" xmlns="http://www.w3.org/2000/svg" viewBox="0 0 400 400"><title>おばけ</title><path d="M351.83333,285c-9.78589-5.59192-18.35309-14.3689-28.94049-29.72772-.10242-.17029-.25452-.39307-.46777-.68042q-3.46326-5.05893-7.25323-11.0921c-5.30719-11.36951-5.00519-23.149-5.00519-32.49976,0-12,3.5-19,12.5-30s-3.5-21-13-18c-6.06592,1.91553-11.92828,8.516-17.977,13.04028-3.08453-20.83533-5.32825-42.94434-11.35632-63.54028-12-41-44.5-64-87.5-64s-75.5,23-87.5,64c-6.03888,20.63287-8.28,42.78381-11.37317,63.65192C87.85842,171.62537,81.9493,164.93134,75.83333,163c-9.5-3-22,7-13,18s12.5,18,12.5,30c0,9.67242.32031,21.94318-5.57593,33.67108-1.89771,2.99573-3.7207,5.78851-5.48737,8.40686-1.45624,1.77753-1.97052,2.563-1.76746,2.589C52.03939,270.78375,43.53585,279.45569,33.83333,285c-14,8-2.5,18.5,6,17s14.5,8,11.5,15.5,6.5,17,16.5,13,31-4.5,46,14.5,42,32,79,32,64-13,79-32,36-18.5,46-14.5,19.5-5.5,16.5-13,3-17,11.5-15.5S365.83333,293,351.83333,285ZM151.75,131.21613a7.61719,7.61719,0,1,1-7.61719,7.61719A7.6172,7.6172,0,0,1,151.75,131.21613Zm41.91663,69.78381c-40.66663,0-48-32.66669-48-32.66669s4.6297,3.595,16.58624,6.32288L168,185.36664l3.61426-9.03571A158.791,158.791,0,0,0,193,177.66663a158.25377,158.25377,0,0,0,21.067-1.29926l3.59967,8.99927,5.71429-10.64935c12.05695-2.7348,16.61908-6.384,16.61908-6.384S234.33333,200.99994,193.66665,200.99994Zm40.25-54.54944a7.61719,7.61719,0,1,1,7.61719-7.61719A7.6172,7.6172,0,0,1,233.91665,146.4505Z"/></svg>