<svg id="レイヤー_1" data-name="レイヤー 1" xmlns="http://www.w3.org/2000/svg" viewBox="0 0 400 400"><title>おおかみおとこ</title><path d="M355.61648,253.83943l25.56064-9.20179s-45.0358-46.0269-56.05428-75.30367a100.10313,100.10313,0,0,0-10.64593-28.57661l9.44478-8.586-11.24688-2.55608s8.17961-4.60089,15.84777-28.62781,9.20179-60.834,5.112-72.59183c-1.33182-3.8293-6.13452-5.62334-13.58439,4.27627-7.11438,9.45358-40.99205,30.87059-64.44395,55.59562a141.8228,141.8228,0,0,0-54.369-11.759l-.006-.05916c-.34409.00243-.67958.02471-1.02255.02949-.343-.00477-.67845-.02705-1.02255-.02949l-.006.05916a141.82358,141.82358,0,0,0-54.369,11.759c-23.4519-24.725-57.32956-46.142-64.44395-55.59562-7.44987-9.89961-12.25257-8.10557-13.58439-4.27627-4.08981,11.75787-2.55618,48.565,5.112,72.59183s15.84777,28.62781,15.84777,28.62781l-11.24688,2.55608,9.44478,8.586A100.10313,100.10313,0,0,0,75.29452,169.334C64.276,198.61074,19.24024,244.63764,19.24024,244.63764l25.56064,9.20179-7.66815,24.53809,23.51555,3.06726L53.4912,298.8259s21.63071,1.56284,46.97793,18.35508c1.48758,1.48449,33.44334,22.37178,45.63188,41.37153s35.89879,26.15672,53.59658,26.15672c.173,0,.34147-.02125.51109-.03782.16961.01657.3381.03782.51109.03782,17.69779,0,41.408-7.15688,53.59658-26.15672,9.46575-14.75539,30.85365-30.64931,40.63354-37.70931,2.8134-2.03077,4.666-3.33067,4.99834-3.66222,25.34722-16.79225,46.97793-18.35508,46.97793-18.35508l-7.15707-17.38112,23.51555-3.06726ZM199.16423,224.31694l.00225-.01151c.357,0,.69418.00384,1.0422.00571.348-.00187.68519-.00571,1.0422-.00571l.00225.01151c22.57594.23785,25.24613,4.46208,15.633,14.58119-5.93982,6.25228-12.42462,7.05729-16.67749,6.70776-4.25287.34952-10.73766-.45548-16.67749-6.70776C173.91811,228.779,176.58829,224.55479,199.16423,224.31694Zm-76.38631-32.8452L161.34447,207.628s-7.81755,17.71969-21.36787,10.42334C126.4261,210.755,122.77792,191.47174,122.77792,191.47174Zm78.99435,160.51988s-.56556.01151-1.56358.003c-.998.00852-1.56358-.003-1.56358-.003l.015-.02237c-7.07151-.1684-24.65959-1.26423-36.49656-7.79508,0-7.29635,4.69038-13.55041,4.69038-13.55041l8.85994,15.1139,5.21157-6.77516,6.254,7.29626,6.25415-6.77516,3.60886,5.41348,3.1663,4.74926,3.1663-4.74926,3.60886-5.41348,6.25415,6.77516,6.254-7.29626,5.21157,6.77516,8.86013-15.1139s4.69019,6.25406,4.69019,13.55041c-11.837,6.53085-29.425,7.62669-36.49656,7.79508Zm39.86935-33.35469c3.127-19.28327-5.73277-41.69353-5.73277-41.69353l-7.29635,7.29635-6.77516-7.81745-7.29654,7.81745-6.25378-7.29635-7.81755,7.81745-.78179-3.38758.2606,3.38758-7.81792-7.81745-6.25378,7.29635L178.58,276.42229l-6.77516,7.81745-7.296-7.29635s-8.86013,22.41026-5.733,41.69353c-6.25434-5.21167-22.93164-28.66431-19.80466-54.20155,20.58551,6.22354,53.90061,6.72995,59.19325,6.77113,5.8655-.04119,42.696-.54759,63.28156-6.77113C264.57306,289.97261,247.89576,313.42526,241.64161,318.63692Zm18.79933-100.58555c-13.55051,7.29635-21.36805-10.42334-21.36805-10.42334l38.56655-16.15629S273.99127,210.755,260.44095,218.05137Z"/></svg>