<svg id="Bat" xmlns="http://www.w3.org/2000/svg" viewBox="0 0 400 400"><path d="M309,121.66663S285.27979,156.238,249.656,166.598c-10.79761,1.52887-17.51245-5.82892-18.48938-15.598a34.66766,34.66766,0,0,0-5.79944-15.6189c10.86011-12.50476,3.291-26.828.77856-25.36468-2.66174,1.55035-8.03613,7.74628-9.16284,14.74774,0,0-.27466.9259-.62524,2.33588a27.52729,27.52729,0,0,0-25.38208.00006c-.35059-1.41-.62524-2.33594-.62524-2.33594-1.12671-7.00146-6.5011-13.19739-9.16284-14.74774-2.51245-1.46332-10.08148,12.85986.77856,25.36468A34.66816,34.66816,0,0,0,176.16663,151c-.977,9.77008-7.693,17.12848-18.49243,15.59766-35.62213-10.36127-59.34088-44.931-59.34088-44.931S41.66669,133.66663,11,179c29.33331-18.66669,53.33331,9.33331,39.33331,44,32-15.33337,57.33337,11.33331,50,43.33331,44-32,89.66669,1.66669,103.33344,56C217.33325,268,263,234.33331,307,266.33331c-7.33325-32,18-58.66669,50-43.33331-14-34.66669,10-62.66669,39.33325-44C365.66675,133.66663,309,121.66663,309,121.66663ZM192.29712,147.56488a3.142,3.142,0,1,1,3.14209-3.142A3.1419,3.1419,0,0,1,192.29712,147.56488Zm22.739,0a3.142,3.142,0,1,1,3.14185-3.142A3.142,3.142,0,0,1,215.03613,147.56488Z"/></svg>